Coordinates
version=1
nRows=32
nColumns=22
inDegrees=yes

Units are S.I. units (second, meters, Newtons, ...)
If the header above contains a line with 'inDegrees', this indicates whether rotational values are in degrees (yes) or radians (no).

endheader
time	pelvis_tilt	pelvis_list	pelvis_rotation	pelvis_tx	pelvis_ty	pelvis_tz	hip_flexion_r	hip_adduction_r	hip_rotation_r	knee_angle_r	ankle_angle_r	subtalar_angle_r	hip_flexion_l	hip_adduction_l	hip_rotation_l	knee_angle_l	ankle_angle_l	subtalar_angle_l	lumbar_extension	lumbar_bending	lumbar_rotation
      3.65000000	      0.42368303	      1.99264341	      0.98457359	     -0.01365412	      0.91551220	     -0.54492816	     23.83930907	      3.24342752	      1.99643838	    -73.34759610	     -7.76675062	     -0.60030396	      4.25220068	     -6.55766023	    -20.21982816	    -20.41064634	      8.78839404	      8.37552121	     -8.84100906	     -4.88003765	     -8.90622858
      3.66000000	      0.58889969	      1.81540185	      0.73336014	     -0.00681667	      0.91632612	     -0.54741119	     24.60684911	      3.35053860	      0.70802975	    -72.27929195	     -7.02656705	     -0.53215878	      3.25153310	     -6.48300111	    -20.64941625	    -19.81456527	      9.02267578	      8.42650364	     -9.12297342	     -4.65117867	     -9.27801018
      3.67000000	      0.67160436	      1.67340758	      0.45853993	     -0.00001806	      0.91681278	     -0.54972459	     25.40936660	      3.42114466	     -0.49673095	    -71.01814708	     -6.32237387	     -0.48633044	      2.36746957	     -6.38090046	    -21.11147728	    -19.28204043	      9.27307371	      8.41512532	     -9.31652186	     -4.47558040	     -9.58607753
      3.68000000	      0.72511829	      1.54395409	      0.17963403	      0.00676863	      0.91707580	     -0.55189669	     26.17194588	      3.47645437	     -1.63853404	    -69.53961581	     -5.70255854	     -0.47050789	      1.54090813	     -6.27189827	    -21.56403001	    -18.80153948	      9.52893586	      8.34817438	     -9.48597626	     -4.31987974	     -9.86291393
      3.69000000	      0.75265426	      1.42368803	     -0.10047953	      0.01356778	      0.91712356	     -0.55394516	     26.88408740	      3.51795302	     -2.72272239	    -67.83989648	     -5.16076506	     -0.47105980	      0.77312743	     -6.16095546	    -21.99385314	    -18.38616379	      9.79286301	      8.22841361	     -9.62990389	     -4.17314698	    -10.12753137
      3.70000000	      0.72664743	      1.32426249	     -0.37347575	      0.02036568	      0.91691001	     -0.55584865	     27.57489160	      3.54024448	     -3.74627646	    -65.92985503	     -4.61641741	     -0.44653058	      0.10219905	     -6.04180558	    -22.38792196	    -18.04720859	     10.05433940	      8.09208611	     -9.72156047	     -4.05779116	    -10.35288983
      3.71000000	      0.74503223	      1.20297863	     -0.62256181	      0.02721686	      0.91663363	     -0.55761341	     28.11344154	      3.58422486	     -4.74594807	    -63.76328852	     -4.20119540	     -0.47712185	     -0.59249682	     -5.95811655	    -22.74644691	    -17.75515590	     10.34343554	      7.84812784	     -9.87488449	     -3.91854134	    -10.61898608
      3.72000000	      0.72068319	      1.09953464	     -0.86172765	      0.03412209	      0.91614457	     -0.55925909	     28.59964364	      3.61202061	     -5.70039064	    -61.37146476	     -3.73404798	     -0.47480575	     -1.20890428	     -5.86850842	    -23.05608187	    -17.53234136	     10.63266900	      7.61412681	     -9.97911839	     -3.79743617	    -10.85717828
      3.73000000	      0.68891523	      0.99857407	     -1.07313007	      0.04110000	      0.91551745	     -0.56079228	     28.98277461	      3.63042181	     -6.64926522	    -58.73957396	     -3.26181275	     -0.45002234	     -1.78126653	     -5.79607346	    -23.32645663	    -17.38297412	     10.94497773	      7.40468415	    -10.07706174	     -3.67821466	    -11.09014504
      3.74000000	      0.66591479	      0.90200533	     -1.26608663	      0.04818262	      0.91481268	     -0.56218724	     29.23292030	      3.65314618	     -7.57956270	    -55.85124059	     -2.82783758	     -0.43534484	     -2.34927303	     -5.73163594	    -23.55976055	    -17.26720465	     11.27549436	      7.21744847	    -10.18011247	     -3.56601633	    -11.33175261
      3.75000000	      0.65344620	      0.81032912	     -1.43477909	      0.05537185	      0.91403153	     -0.56349650	     29.34360844	      3.66824799	     -8.51615092	    -52.71701259	     -2.40035388	     -0.43289421	     -2.90754704	     -5.67583797	    -23.76507158	    -17.19474089	     11.62141917	      7.07125845	    -10.29563051	     -3.44998162	    -11.56641401
      3.76000000	      0.67425045	      0.72394421	     -1.60341648	      0.06273440	      0.91323162	     -0.56463585	     29.28197858	      3.69161371	     -9.46575519	    -49.33340652	     -2.04144189	     -0.47809228	     -3.51275119	     -5.61730346	    -23.93301087	    -17.11754339	     11.96195574	      6.96043173	    -10.43107058	     -3.34818316	    -11.76357428
      3.77000000	      0.68863287	      0.65492498	     -1.74060385	      0.07022746	      0.91232573	     -0.56567582	     29.10431653	      3.69724613	    -10.46239305	    -45.73871428	     -1.69419174	     -0.50212121	     -4.07972785	     -5.56602430	    -24.11830108	    -17.11025115	     12.32728121	      6.89213908	    -10.54954235	     -3.25987768	    -11.99120375
      3.78000000	      0.74454991	      0.59230366	     -1.88769432	      0.07790155	      0.91142065	     -0.56653172	     28.75606533	      3.72502687	    -11.48819373	    -41.93483016	     -1.45370384	     -0.56985647	     -4.72163843	     -5.50027334	    -24.26599645	    -17.06017162	     12.66790549	      6.85661769	    -10.69574807	     -3.18529360	    -12.14870381
      3.79000000	      0.77547617	      0.53695352	     -1.99620012	      0.08571197	      0.91037378	     -0.56726219	     28.33528387	      3.75416088	    -12.60598552	    -37.98920845	     -1.25000479	     -0.58688906	     -5.30519925	     -5.45948105	    -24.44062629	    -17.08434874	     13.02382482	      6.82547785	    -10.79664105	     -3.11198767	    -12.34301311
      3.80000000	      0.81895649	      0.49326273	     -2.10255029	      0.09367728	      0.90925322	     -0.56779884	     27.81877695	      3.80609547	    -13.78359468	    -33.94572531	     -1.11934011	     -0.59585281	     -5.92073915	     -5.41077312	    -24.60250862	    -17.08938361	     13.36010879	      6.80782885	    -10.89096366	     -3.05712105	    -12.50613203
      3.81000000	      0.87578709	      0.46877896	     -2.19683305	      0.10178918	      0.90804061	     -0.56816588	     27.23703405	      3.87141364	    -15.02504301	    -29.88617966	     -1.01780055	     -0.58729921	     -6.56128158	     -5.35111909	    -24.76127403	    -17.08938345	     13.69183958	      6.81037057	    -10.97974148	     -3.02237096	    -12.65699536
      3.82000000	      0.91496306	      0.46934665	     -2.27954414	      0.11003721	      0.90667688	     -0.56835645	     26.66427442	      3.94105701	    -16.33685695	    -25.91265063	     -0.90161727	     -0.54751876	     -7.19088294	     -5.28133690	    -24.93869696	    -17.09175437	     14.00300699	      6.82591469	    -11.02627471	     -3.01208417	    -12.80500453
      3.83000000	      0.96323436	      0.50299658	     -2.36147407	      0.11841878	      0.90519920	     -0.56835480	     26.10353105	      4.01021522	    -17.68406163	    -22.11558544	     -0.73191624	     -0.49485045	     -7.84838762	     -5.18602426	    -25.12294970	    -17.07759864	     14.29625791	      6.87553270	    -11.06282682	     -3.03782175	    -12.93658294
      3.84000000	      1.01958814	      0.57017922	     -2.45178855	      0.12691762	      0.90360929	     -0.56814416	     25.58985672	      4.07313692	    -19.04326097	    -18.59468965	     -0.48570850	     -0.44667669	     -8.53274321	     -5.06571181	    -25.32230910	    -17.04828582	     14.56126651	      6.97330274	    -11.09326567	     -3.10349260	    -13.04348186
      3.85000000	      1.05913436	      0.66672250	     -2.54511970	      0.13549949	      0.90188409	     -0.56774950	     25.17286212	      4.12085064	    -20.39348205	    -15.43130817	     -0.15703126	     -0.42010990	     -9.19677480	     -4.93297508	    -25.50980807	    -17.04230175	     14.78363246	      7.09554699	    -11.09362683	     -3.19480526	    -13.12595187
      3.86000000	      1.11055838	      0.79886826	     -2.66796921	      0.14420241	      0.90008680	     -0.56717142	     24.84738138	      4.13337708	    -21.70957671	    -12.73402683	      0.24306059	     -0.43477444	     -9.89928551	     -4.76406057	    -25.72028196	    -17.00797581	     14.97160835	      7.26777467	    -11.09333759	     -3.31493454	    -13.18762562
      3.87000000	      1.16433364	      0.95055839	     -2.80929385	      0.15298687	      0.89822913	     -0.56642502	     24.62549630	      4.10954061	    -22.96317389	    -10.55237449	      0.70413360	     -0.49126064	    -10.59629796	     -4.58821122	    -25.89715209	    -17.00883979	     15.10271061	      7.46374733	    -11.09132521	     -3.44663694	    -13.21142684
      3.88000000	      1.23090451	      1.11364697	     -2.96718369	      0.16186679	      0.89636091	     -0.56552742	     24.49866079	      4.03539878	    -24.13439932	     -8.94874806	      1.19334368	     -0.58584735	    -11.29524198	     -4.41276613	    -26.02845882	    -17.04896508	     15.17958675	      7.66420677	    -11.10160660	     -3.57561766	    -13.21998289
      3.89000000	      1.30785514	      1.27513156	     -3.13409403	      0.17089121	      0.89451361	     -0.56452825	     24.46014392	      3.89936529	    -25.19514225	     -7.95880168	      1.71448082	     -0.71388675	    -11.98828133	     -4.25101940	    -26.09507511	    -17.14116594	     15.18496706	      7.84150857	    -11.11198178	     -3.67778752	    -13.22755575
      3.90000000	      1.39954047	      1.42825124	     -3.30992027	      0.18008350	      0.89272024	     -0.56343597	     24.50121332	      3.68799505	    -26.14075229	     -7.60937003	      2.24238247	     -0.88083815	    -12.66884441	     -4.11404617	    -26.09576986	    -17.31202030	     15.10861744	      7.97692849	    -11.12869363	     -3.74430402	    -13.22115807
      3.91000000	      1.53817332	      1.55195954	     -3.48034742	      0.18951810	      0.89108261	     -0.56228153	     24.54904447	      3.41346003	    -26.98828518	     -7.83490029	      2.65000965	     -1.24950253	    -13.39685667	     -4.00923724	    -25.99096563	    -17.50876273	     14.95752257	      8.12766877	    -11.18296740	     -3.74754310	    -13.24654925
      3.92000000	      1.67612589	      1.65411097	     -3.64325481	      0.19921400	      0.88952949	     -0.56103771	     24.63740846	      3.07599286	    -27.69492243	     -8.58196135	      3.02388060	     -1.76655374	    -14.09052358	     -3.95169143	    -25.82626999	    -17.80163777	     14.71550912	      8.23668285	    -11.21166285	     -3.69858787	    -13.30151623
      3.93000000	      1.81842889	      1.71284735	     -3.79755073	      0.20921929	      0.88810161	     -0.55967996	     24.72123164	      2.71825572	    -28.29753909	     -9.72474234	      3.30343417	     -2.49559124	    -14.76353350	     -3.96178172	    -25.58914203	    -18.18350919	     14.37559886	      8.33876306	    -11.21802424	     -3.57462267	    -13.36408195
      3.94000000	      1.97143586	      1.73494175	     -3.92691500	      0.21953810	      0.88684661	     -0.55818922	     24.76683467	      2.35129146	    -28.83850367	    -11.14083369	      3.44044135	     -3.35692162	    -15.42421215	     -4.03360106	    -25.25906637	    -18.63736135	     13.95762309	      8.46218544	    -11.20735360	     -3.39085238	    -13.47566241
      3.95000000	      2.11773121	      1.68700613	     -4.04463159	      0.23017814	      0.88577706	     -0.55647335	     24.76017873	      2.04998688	    -29.35916925	    -12.68724283	      3.45685532	     -4.40337375	    -16.04531981	     -4.21494662	    -24.88437050	    -19.19670935	     13.41824656	      8.63336761	    -11.15963743	     -3.12258570	    -13.58704597
      3.96000000	      2.24631652	      1.55914708	     -4.16204771	      0.24111109	      0.88492169	     -0.55448522	     24.69295414	      1.85520957	    -29.88756091	    -14.24265675	      3.33930528	     -5.66292681	    -16.60927192	     -4.51745547	    -24.48270060	    -19.86936862	     12.73406913	      8.87421849	    -11.06474709	     -2.76327192	    -13.68863252
